<mxfile host="app.diagrams.net" modified="2023-07-26T18:25:06.874Z" agent="Mozilla/5.0 (Windows NT 10.0; Win64; x64) AppleWebKit/537.36 (KHTML, like Gecko) Chrome/115.0.0.0 Safari/537.36" etag="92AT0HlMqnK1aBscVyJo" version="21.6.5" type="device">
  <diagram name="Página-1" id="V20cHk1rlWaq8SelJViR">
    <mxGraphModel dx="1050" dy="574" grid="1" gridSize="10" guides="1" tooltips="1" connect="1" arrows="1" fold="1" page="1" pageScale="1" pageWidth="827" pageHeight="1169" math="0" shadow="0">
      <root>
        <mxCell id="0" />
        <mxCell id="1" parent="0" />
        <mxCell id="qgkxdRaN1x4EN75sdfEh-1" value="Você deverá criar a modelagem para o catálogo de filmes, observando a seguinte situação:&#xa;&#xa;&#xa;- um filme possui apenas um único gênero.&#xa;- um gênero pode definir mais de um filme." style="text;whiteSpace=wrap;" parent="1" vertex="1">
          <mxGeometry x="120" y="20" width="520" height="100" as="geometry" />
        </mxCell>
        <mxCell id="E0GS7mV2OciLkvAMQ9gW-7" style="edgeStyle=orthogonalEdgeStyle;rounded=0;orthogonalLoop=1;jettySize=auto;html=1;entryX=0;entryY=0.5;entryDx=0;entryDy=0;endArrow=none;endFill=0;" parent="1" source="E0GS7mV2OciLkvAMQ9gW-1" target="E0GS7mV2OciLkvAMQ9gW-4" edge="1">
          <mxGeometry relative="1" as="geometry" />
        </mxCell>
        <mxCell id="E0GS7mV2OciLkvAMQ9gW-8" style="edgeStyle=orthogonalEdgeStyle;rounded=0;orthogonalLoop=1;jettySize=auto;html=1;entryX=0;entryY=0.5;entryDx=0;entryDy=0;endArrow=none;endFill=0;" parent="1" source="E0GS7mV2OciLkvAMQ9gW-1" target="E0GS7mV2OciLkvAMQ9gW-5" edge="1">
          <mxGeometry relative="1" as="geometry" />
        </mxCell>
        <mxCell id="E0GS7mV2OciLkvAMQ9gW-9" style="edgeStyle=orthogonalEdgeStyle;rounded=0;orthogonalLoop=1;jettySize=auto;html=1;entryX=0;entryY=0.5;entryDx=0;entryDy=0;endArrow=none;endFill=0;" parent="1" source="E0GS7mV2OciLkvAMQ9gW-1" target="E0GS7mV2OciLkvAMQ9gW-6" edge="1">
          <mxGeometry relative="1" as="geometry" />
        </mxCell>
        <mxCell id="E0GS7mV2OciLkvAMQ9gW-10" style="edgeStyle=orthogonalEdgeStyle;rounded=0;orthogonalLoop=1;jettySize=auto;html=1;entryX=0.5;entryY=0;entryDx=0;entryDy=0;endArrow=none;endFill=0;" parent="1" source="E0GS7mV2OciLkvAMQ9gW-1" target="E0GS7mV2OciLkvAMQ9gW-2" edge="1">
          <mxGeometry relative="1" as="geometry" />
        </mxCell>
        <mxCell id="E0GS7mV2OciLkvAMQ9gW-1" value="Filme" style="rounded=0;whiteSpace=wrap;html=1;" parent="1" vertex="1">
          <mxGeometry x="80" y="270" width="120" height="60" as="geometry" />
        </mxCell>
        <mxCell id="E0GS7mV2OciLkvAMQ9gW-11" style="edgeStyle=orthogonalEdgeStyle;rounded=0;orthogonalLoop=1;jettySize=auto;html=1;entryX=0.5;entryY=0;entryDx=0;entryDy=0;endArrow=none;endFill=0;" parent="1" source="E0GS7mV2OciLkvAMQ9gW-2" target="E0GS7mV2OciLkvAMQ9gW-3" edge="1">
          <mxGeometry relative="1" as="geometry" />
        </mxCell>
        <mxCell id="E0GS7mV2OciLkvAMQ9gW-2" value="possui" style="rhombus;whiteSpace=wrap;html=1;" parent="1" vertex="1">
          <mxGeometry x="100" y="390" width="80" height="80" as="geometry" />
        </mxCell>
        <mxCell id="FE-yhZENNOEqTX57cbMa-32" value="" style="edgeStyle=orthogonalEdgeStyle;rounded=0;orthogonalLoop=1;jettySize=auto;html=1;endArrow=none;endFill=0;" edge="1" parent="1" source="E0GS7mV2OciLkvAMQ9gW-3" target="FE-yhZENNOEqTX57cbMa-31">
          <mxGeometry relative="1" as="geometry">
            <Array as="points">
              <mxPoint x="230" y="550" />
              <mxPoint x="230" y="590" />
            </Array>
          </mxGeometry>
        </mxCell>
        <mxCell id="E0GS7mV2OciLkvAMQ9gW-3" value="Genero" style="rounded=0;whiteSpace=wrap;html=1;" parent="1" vertex="1">
          <mxGeometry x="80" y="520" width="120" height="60" as="geometry" />
        </mxCell>
        <mxCell id="E0GS7mV2OciLkvAMQ9gW-4" value="Vingadores" style="ellipse;whiteSpace=wrap;html=1;" parent="1" vertex="1">
          <mxGeometry x="284" y="240" width="66" height="40" as="geometry" />
        </mxCell>
        <mxCell id="E0GS7mV2OciLkvAMQ9gW-5" value="John Wick" style="ellipse;whiteSpace=wrap;html=1;" parent="1" vertex="1">
          <mxGeometry x="284" y="290" width="66" height="40" as="geometry" />
        </mxCell>
        <mxCell id="E0GS7mV2OciLkvAMQ9gW-6" value="Indiana Jones" style="ellipse;whiteSpace=wrap;html=1;" parent="1" vertex="1">
          <mxGeometry x="284" y="340" width="66" height="40" as="geometry" />
        </mxCell>
        <mxCell id="E0GS7mV2OciLkvAMQ9gW-12" value="N" style="text;html=1;strokeColor=none;fillColor=none;align=center;verticalAlign=middle;whiteSpace=wrap;rounded=0;" parent="1" vertex="1">
          <mxGeometry x="140" y="330" width="40" height="30" as="geometry" />
        </mxCell>
        <mxCell id="E0GS7mV2OciLkvAMQ9gW-13" value="1" style="text;html=1;strokeColor=none;fillColor=none;align=center;verticalAlign=middle;whiteSpace=wrap;rounded=0;" parent="1" vertex="1">
          <mxGeometry x="140" y="490" width="40" height="30" as="geometry" />
        </mxCell>
        <mxCell id="E0GS7mV2OciLkvAMQ9gW-15" value="" style="edgeStyle=orthogonalEdgeStyle;rounded=0;orthogonalLoop=1;jettySize=auto;html=1;entryX=1;entryY=0.25;entryDx=0;entryDy=0;endArrow=none;endFill=0;" parent="1" source="E0GS7mV2OciLkvAMQ9gW-14" target="E0GS7mV2OciLkvAMQ9gW-3" edge="1">
          <mxGeometry relative="1" as="geometry" />
        </mxCell>
        <mxCell id="E0GS7mV2OciLkvAMQ9gW-14" value="Ação" style="ellipse;whiteSpace=wrap;html=1;" parent="1" vertex="1">
          <mxGeometry x="260" y="520" width="70" height="40" as="geometry" />
        </mxCell>
        <mxCell id="FE-yhZENNOEqTX57cbMa-1" value="CONCEITUAL" style="rounded=1;whiteSpace=wrap;html=1;fillColor=#FF9999;" vertex="1" parent="1">
          <mxGeometry x="160" y="140" width="120" height="60" as="geometry" />
        </mxCell>
        <mxCell id="FE-yhZENNOEqTX57cbMa-2" value="LOGICO" style="rounded=1;whiteSpace=wrap;html=1;fillColor=#FF9999;" vertex="1" parent="1">
          <mxGeometry x="630" y="140" width="120" height="60" as="geometry" />
        </mxCell>
        <mxCell id="FE-yhZENNOEqTX57cbMa-3" value="FISICO" style="rounded=1;whiteSpace=wrap;html=1;fillColor=#FF9999;" vertex="1" parent="1">
          <mxGeometry x="1121" y="140" width="120" height="60" as="geometry" />
        </mxCell>
        <mxCell id="FE-yhZENNOEqTX57cbMa-4" value="Genero" style="shape=table;startSize=30;container=1;collapsible=1;childLayout=tableLayout;fixedRows=1;rowLines=0;fontStyle=1;align=center;resizeLast=1;html=1;" vertex="1" parent="1">
          <mxGeometry x="460" y="250" width="180" height="90" as="geometry" />
        </mxCell>
        <mxCell id="FE-yhZENNOEqTX57cbMa-5" value="" style="shape=tableRow;horizontal=0;startSize=0;swimlaneHead=0;swimlaneBody=0;fillColor=none;collapsible=0;dropTarget=0;points=[[0,0.5],[1,0.5]];portConstraint=eastwest;top=0;left=0;right=0;bottom=1;" vertex="1" parent="FE-yhZENNOEqTX57cbMa-4">
          <mxGeometry y="30" width="180" height="30" as="geometry" />
        </mxCell>
        <mxCell id="FE-yhZENNOEqTX57cbMa-6" value="PK" style="shape=partialRectangle;connectable=0;fillColor=none;top=0;left=0;bottom=0;right=0;fontStyle=1;overflow=hidden;whiteSpace=wrap;html=1;" vertex="1" parent="FE-yhZENNOEqTX57cbMa-5">
          <mxGeometry width="30" height="30" as="geometry">
            <mxRectangle width="30" height="30" as="alternateBounds" />
          </mxGeometry>
        </mxCell>
        <mxCell id="FE-yhZENNOEqTX57cbMa-7" value="IdGenero" style="shape=partialRectangle;connectable=0;fillColor=none;top=0;left=0;bottom=0;right=0;align=left;spacingLeft=6;fontStyle=5;overflow=hidden;whiteSpace=wrap;html=1;" vertex="1" parent="FE-yhZENNOEqTX57cbMa-5">
          <mxGeometry x="30" width="150" height="30" as="geometry">
            <mxRectangle width="150" height="30" as="alternateBounds" />
          </mxGeometry>
        </mxCell>
        <mxCell id="FE-yhZENNOEqTX57cbMa-8" value="" style="shape=tableRow;horizontal=0;startSize=0;swimlaneHead=0;swimlaneBody=0;fillColor=none;collapsible=0;dropTarget=0;points=[[0,0.5],[1,0.5]];portConstraint=eastwest;top=0;left=0;right=0;bottom=0;" vertex="1" parent="FE-yhZENNOEqTX57cbMa-4">
          <mxGeometry y="60" width="180" height="30" as="geometry" />
        </mxCell>
        <mxCell id="FE-yhZENNOEqTX57cbMa-9" value="" style="shape=partialRectangle;connectable=0;fillColor=none;top=0;left=0;bottom=0;right=0;editable=1;overflow=hidden;whiteSpace=wrap;html=1;" vertex="1" parent="FE-yhZENNOEqTX57cbMa-8">
          <mxGeometry width="30" height="30" as="geometry">
            <mxRectangle width="30" height="30" as="alternateBounds" />
          </mxGeometry>
        </mxCell>
        <mxCell id="FE-yhZENNOEqTX57cbMa-10" value="NomeGenero" style="shape=partialRectangle;connectable=0;fillColor=none;top=0;left=0;bottom=0;right=0;align=left;spacingLeft=6;overflow=hidden;whiteSpace=wrap;html=1;" vertex="1" parent="FE-yhZENNOEqTX57cbMa-8">
          <mxGeometry x="30" width="150" height="30" as="geometry">
            <mxRectangle width="150" height="30" as="alternateBounds" />
          </mxGeometry>
        </mxCell>
        <mxCell id="FE-yhZENNOEqTX57cbMa-17" value="Filme" style="shape=table;startSize=30;container=1;collapsible=1;childLayout=tableLayout;fixedRows=1;rowLines=0;fontStyle=1;align=center;resizeLast=1;html=1;whiteSpace=wrap;" vertex="1" parent="1">
          <mxGeometry x="720" y="250" width="180" height="120" as="geometry" />
        </mxCell>
        <mxCell id="FE-yhZENNOEqTX57cbMa-18" value="" style="shape=tableRow;horizontal=0;startSize=0;swimlaneHead=0;swimlaneBody=0;fillColor=none;collapsible=0;dropTarget=0;points=[[0,0.5],[1,0.5]];portConstraint=eastwest;top=0;left=0;right=0;bottom=0;html=1;" vertex="1" parent="FE-yhZENNOEqTX57cbMa-17">
          <mxGeometry y="30" width="180" height="30" as="geometry" />
        </mxCell>
        <mxCell id="FE-yhZENNOEqTX57cbMa-19" value="PK" style="shape=partialRectangle;connectable=0;fillColor=none;top=0;left=0;bottom=0;right=0;fontStyle=1;overflow=hidden;html=1;whiteSpace=wrap;" vertex="1" parent="FE-yhZENNOEqTX57cbMa-18">
          <mxGeometry width="60" height="30" as="geometry">
            <mxRectangle width="60" height="30" as="alternateBounds" />
          </mxGeometry>
        </mxCell>
        <mxCell id="FE-yhZENNOEqTX57cbMa-20" value="IdFilme" style="shape=partialRectangle;connectable=0;fillColor=none;top=0;left=0;bottom=0;right=0;align=left;spacingLeft=6;fontStyle=5;overflow=hidden;html=1;whiteSpace=wrap;" vertex="1" parent="FE-yhZENNOEqTX57cbMa-18">
          <mxGeometry x="60" width="120" height="30" as="geometry">
            <mxRectangle width="120" height="30" as="alternateBounds" />
          </mxGeometry>
        </mxCell>
        <mxCell id="FE-yhZENNOEqTX57cbMa-21" value="" style="shape=tableRow;horizontal=0;startSize=0;swimlaneHead=0;swimlaneBody=0;fillColor=none;collapsible=0;dropTarget=0;points=[[0,0.5],[1,0.5]];portConstraint=eastwest;top=0;left=0;right=0;bottom=1;html=1;" vertex="1" parent="FE-yhZENNOEqTX57cbMa-17">
          <mxGeometry y="60" width="180" height="30" as="geometry" />
        </mxCell>
        <mxCell id="FE-yhZENNOEqTX57cbMa-22" value="FK" style="shape=partialRectangle;connectable=0;fillColor=none;top=0;left=0;bottom=0;right=0;fontStyle=1;overflow=hidden;html=1;whiteSpace=wrap;" vertex="1" parent="FE-yhZENNOEqTX57cbMa-21">
          <mxGeometry width="60" height="30" as="geometry">
            <mxRectangle width="60" height="30" as="alternateBounds" />
          </mxGeometry>
        </mxCell>
        <mxCell id="FE-yhZENNOEqTX57cbMa-23" value="IdGenero" style="shape=partialRectangle;connectable=0;fillColor=none;top=0;left=0;bottom=0;right=0;align=left;spacingLeft=6;fontStyle=5;overflow=hidden;html=1;whiteSpace=wrap;" vertex="1" parent="FE-yhZENNOEqTX57cbMa-21">
          <mxGeometry x="60" width="120" height="30" as="geometry">
            <mxRectangle width="120" height="30" as="alternateBounds" />
          </mxGeometry>
        </mxCell>
        <mxCell id="FE-yhZENNOEqTX57cbMa-24" value="" style="shape=tableRow;horizontal=0;startSize=0;swimlaneHead=0;swimlaneBody=0;fillColor=none;collapsible=0;dropTarget=0;points=[[0,0.5],[1,0.5]];portConstraint=eastwest;top=0;left=0;right=0;bottom=0;html=1;" vertex="1" parent="FE-yhZENNOEqTX57cbMa-17">
          <mxGeometry y="90" width="180" height="30" as="geometry" />
        </mxCell>
        <mxCell id="FE-yhZENNOEqTX57cbMa-25" value="" style="shape=partialRectangle;connectable=0;fillColor=none;top=0;left=0;bottom=0;right=0;editable=1;overflow=hidden;html=1;whiteSpace=wrap;" vertex="1" parent="FE-yhZENNOEqTX57cbMa-24">
          <mxGeometry width="60" height="30" as="geometry">
            <mxRectangle width="60" height="30" as="alternateBounds" />
          </mxGeometry>
        </mxCell>
        <mxCell id="FE-yhZENNOEqTX57cbMa-26" value="Titulo" style="shape=partialRectangle;connectable=0;fillColor=none;top=0;left=0;bottom=0;right=0;align=left;spacingLeft=6;overflow=hidden;html=1;whiteSpace=wrap;" vertex="1" parent="FE-yhZENNOEqTX57cbMa-24">
          <mxGeometry x="60" width="120" height="30" as="geometry">
            <mxRectangle width="120" height="30" as="alternateBounds" />
          </mxGeometry>
        </mxCell>
        <mxCell id="FE-yhZENNOEqTX57cbMa-30" value="" style="edgeStyle=entityRelationEdgeStyle;fontSize=12;html=1;endArrow=ERoneToMany;rounded=0;exitX=1;exitY=0.5;exitDx=0;exitDy=0;entryX=0;entryY=0.5;entryDx=0;entryDy=0;" edge="1" parent="1" source="FE-yhZENNOEqTX57cbMa-5" target="FE-yhZENNOEqTX57cbMa-21">
          <mxGeometry width="100" height="100" relative="1" as="geometry">
            <mxPoint x="620" y="430" as="sourcePoint" />
            <mxPoint x="720" y="330" as="targetPoint" />
            <Array as="points">
              <mxPoint x="680" y="400" />
            </Array>
          </mxGeometry>
        </mxCell>
        <mxCell id="FE-yhZENNOEqTX57cbMa-31" value="Aventura" style="ellipse;whiteSpace=wrap;html=1;" vertex="1" parent="1">
          <mxGeometry x="260" y="570" width="70" height="40" as="geometry" />
        </mxCell>
        <mxCell id="FE-yhZENNOEqTX57cbMa-33" value="" style="shape=image;verticalLabelPosition=bottom;labelBackgroundColor=default;verticalAlign=top;aspect=fixed;imageAspect=0;image=data:image/png,iVBORw0KGgoAAAANSUhEUgAAAv8AAACXCAYAAACCwzQ8AAAAAXNSR0IArs4c6QAAAARnQU1BAACxjwv8YQUAAAAJcEhZcwAAEnQAABJ0Ad5mH3gAACEjSURBVHhe7d09bxpLuMDxx/dTYMmJhZQ2t3BlkNIgnQ8QkCMFqqOU6ax0Ji4c3EWnS3l0KrAUC/IBjkRzJHCV4qaNhJxYMt+COzM7u8zOLuAXbAPz/0mbwLK7vMzOzLM7L96aKOL49euXPH/+3D5DKEj3MJHuYSLdw0S6h4l0D9O8dP8f+z8AAACADUfwDwAAAASC4B8AAAAIBME/AAAAEAiCfwAAACAQBP8AAABAIAj+AQAAgEBsXV5epub5393dtY8AhECVAfYRQkE5DwCbb1b9nvkjX1tbW+KtArChyO9hIt0BYLPNK+fp9gMAAAAEguAfAAAACATBPwAAABAIgn8AAAAgEAT/AAAAQCAI/gEAAIBAEPyvjbF03myZqZvcpXY2tq8DALBBrjpS8+q81PKmo2pG5eJUPa9J58rsJeOzmnp+KsPoKQAPwf8aiAqybWm8HJg5W5Pld1ukvk0hBwDYWNXOdbrui5evdSnoDfaP1POu1HfM5gAWIPhfdVcdeV/vRYXfx5Jdae3UpasuAKrSlM+0AAAAAGABgv8VN/ynIT1pyYe35v5GlroA+HBSlb2ifW5FrQVO8+gnt23AdiFS69LbTZtNp4Zy6h7H38Y0t55KxznO6YV9bdG+AADcl9ftJy2qh2pnw3TXWdtlaPjJWZfTij6/LgXWE8H/ShtK/1j9d1IR755/SuljV472pxcHujDbrou0f8fNowNpHZezhZZa916+2G2upX3Qk8Yzp/Az/S3L0jyZdje67ojaxi9km9L4VpNru83Rvlo1c1/34gAAgIfXq5dldBjVRbrLbPW8IdsqmP/8Iu5SpOvAppTjcQTKjetSYM0Q/K+yq5F8V/9VX3i39edRQfdndcFQ7Xxx+j+W5GjYMsF+KvA+aMuXpEWhIPVDtY16x5EN7ONWh4HT3ajw9kt0kXA4LSC11qHte2mZfdXxrzP7qkuFv9L7AgAwS8+MbXPuvuvFCdJv5GQQ3ZjSdipSU3WRXwdWXldFzkcy0k9vU5cCa4bgfx2Zu+peQWibK8f/dVXAXpXaK6+b0H5FhfEqtB85xeXLYipgT5vV6uAVkEZViqmBVmMZ/VD/ZY6fty8AALPlDviNB/ve0K1uoim3qkuBNUPwv8p2irKn/uv99EJlPdDXKQSvOyqgTtHdd/yLg7I07avz9ZI7/4Zu4kwdRzeD9uyLs6jg/tw+BABgLd2nLgVWF8H/SitJ5UT9d9zPDEKaryUD5+LAXbqzBg7PMHOKtcnRnHEIRSnqJlUAANbW8upSYJUQ/K+40p+3m8qz8Kpmtu/7/RFtV6Gb91OMLjx63/qZfpVmdoS5/S0LUnyp/stctIyl/60ncqAuDuwaAABWzfLqUmD1EPyvOt3FZ9iKBjxlAu5oCjPTDSfum2+m/hRpltwZecbSOYwG4L6LBzzdgLnw0DMiuDMbXJxK+Tg7wNcXX7SUnX3HZ++lcb54XwAAntQS61Jg1RD8rwPz1wsnMngZTU2W6nsYT6XpzKpT+jidVjPazv514FsOkIrGFtipzeL3LH03054lsybMkrPvdn3PNKEu3BcAgCe2tLoUWDFbKnCc2MeGPsG9VQA2FPk9TKQ7AGy2eeU8d/4BAACAQBD8AwAAAIEg+AcAAAACQfAPAAAABILgHwAAAAjE1uXlZWoo8O7urn0EIASqDLCPEArKeQDYfLPqd6b6hEG6h4l0DxPpHibSPUyke5jmpTvdfgAAAIBAEPwDAAAAgSD4BwAAAAJB8A8AAAAEguAfAAAACATBPwAAABCIlQn+h5+2ZGvrVIb2eb6xdN6o7d501COffW0rvdTOsltiia46UtO/dW6aKPb1VU2H6Lzzlk/zz0IAD+CGZcX4rKbyaU06V9Hz3DzsLKcX0XbRfnEdY+sL8vqjoH7HzQ3l1EvnvKV29n/ZPHxxevs8rfdxypNQbMSd/6hQ35bGy4GZ0zRZfrdF6tvqtUWFDu7tvCHv16kgNhl+S8o/2nLtnjOTgbSOy0EWBsD6askglY+ny9F+tEXhbVc9P5JS9BRrgvo9NCU5ctNZ18lqbbVz7aybSPft/0r9q3r8Mc7R6gLxr6Z9jEXWP/i/6sj7ei86MZKTwNqpS1cVEFVpymfuEDy4Xv39mgTMQzktqULiRFUmX+tSsGsjuuDRhU1PGv9QpQDAk6F+Bx7Eigf/XvPPp75dPzX8p6HCtJZ8eJsO4RKqgPhwUpW9on1uZJsQ46bhyLRJOLrrEG+XdzfYb6LytjF3mE+l4xwneS979zlZZnWdWQPVzkDaBypgPrzJd1jw+9vm/9MLP/11MO7tm/ObpdNMLV4z4Pjss6ouqtL+c9Y9wJK861Sl9aKYPvaC9Eq6FdjPH2+XbZpedP5F3/v0zDlO8h0WnG/Ahkl36zmVbC1wM0n+tM9T7lXmLMrPyOf/1tTvuI1pOkbptC2Nc/XQabnPz/M2Tb24IG1Bum+CiSdn1aMYnIh679ZkYJ9PfrcnVfVZ5CRZY7dRy0F7ch2tmbS8bRaz+yTHUIYtc9zW0D5Xr7QPoveqduKt4nXzP+N1p6q2qU7av+0Ke+zU+ynRdnnv6Rz/EenPcif2NzC/k/s4llk3+/dPtol/17zfUS3T3yyb/tE54uyX2cb+zl56LDIzvZzjxNvkrct85pzvn9km9T2Umeebu+/t6H0RnpVM90xZkVMmJuXANG9k6o4ZorwSb2ePHeelO5c5N8nPq+Op0p36Pef4j0h/lvUVpWkqrjC8PJx5HqeD/5t755VJQydNH6CefSrz0j3zylOdJH7hkF+g28SNM1qmslgsk3mt9Pt57xPzTpIbfcbcimDGyXyH77Msd0537zNnft/c1/3fzPstc3+H/IrA7LfofEilQf5x5puxz6LvbqTT+mbn3w2+a2LGuXpDT5Xf8bRWMt39/JtbdmbzUJR38hd333TZ4wUKdyxzbpafV4f+TZ6C/3vk/z7U7w/lqdJ9OWb8nnFaJPnTfx6fD34aevk6L90z9emMc2bFzUv3Fe32M5bRD/XfScUbnFWQ4kv7cB6v20W06KafsfS/9UQOalLZsdtapT/U6SDfZeQ27bwsev3BXUPpH6v/cj5j5bXK4ucjGdk16sSSovt+VyP1TiJ7Re/oOxWpHYj0fk73XDeFt1/mdv8Z/dS/f1FSrbRK3u+f+X0WGP/XlZ76rWuvvP32K2bA0PfRvEZXv5lPL7ap76IvehhR6w+/z2leeu2l0zrldudf9YX7K9k8kTkn8843YP2NR7qUbEnFDtiNFYp79pErf8BvPNj3pm5X5tyyPoFF/Y5VFU49u6LBv/qBdd+tHMUXKgFiO0UVauVkJj0QyKkA1NWffcE6b8i2X3joAaA30ksXIKZ/WfpY23VVAM2jCocFW6yxgtT/aks1d/Yfm7EelLrweJZOj62tsgneI+rCQxXA8mOkPo3Lm2FgqCuLtGbJP67tY3gDqXP0Tuff7DwBbCJzoyCPKve9Ev1p3as+CRH1O1ZVOPXsigb/NkDLka4QSlI5Uf8d99V1+i3oWV6cwmO6dKU+865tvqo3/dR0mTOl3KpVXsumCucvqkDOzv5zwzs79zJ7yr+uGTQWX8F3pX+ru3JVaf/OP25mFopF7nT+zc4TwCZKBYKuVQuullifhIH6HasqnHp2RYN/GyRmMn32znHpz9tM9WUDv5zCZO5MELmigqn3re/dQZZodop5I/vtHY3mv967XfWlq64609091lPS/aekZ2uYMhV6TuA9/FffmZnXZWaxwquaORf6/kwbyUwe0dPC2w/qEuEWU3mabkM96f6XSWnTVejmf2jmPuff7DwRNXWrQsuuATZB1L0nm5+j7kCrYJn1SUio3/GEbLesfOHUsys71Wfpo55rvSllZzqm8dn7bDcL3QQ4VKGZ/mMfmQwZBWemmc723YsCP3Vcd1sVHEZzCb+bfTWfwxRMuonRnTLq4lTKxyKtQ3/+eFc0laRuUpxOQTaWzuGCac3Wiu3+Y5/FksDbHRNgf7Pb/v4ZZto33T3HnZbL/q4HbXmX9P8tyZGeH9o06foVgp0+TDcTJ31Ho/TS55g7Zdzwk+5OdLv0us/5F1eEeXli/vkGrKH9IxmY/OzkUZtXVsUy65OQUL9j+Wzg7nTpjW8ITi8e43SYLZR6dmWDf52BzB9bcvrcbX+rSVs3A/pUJaGb4gYv/b5+KjiLmwCTrhn6uNfSFmfbZw3ZG8bdQm7B9D1Mf8at0nfTPWTRQDPz1yZVoTbtRx7/BcMN+guUtvtPWs7vb3+zW//+OUofdR9Qcfr929/V/2NeJu30tt+lHH+OeHv16a71OePsk02v+K8D3za97nH+5Zxv2/U9083ptgMbgXWg8/PgRFXESV7pSq2THY/zdJZYnwSF+h3LZwZ22zEf5sJLp2F88WjTYXSozo95XXsCqWe3VMbR0wEl9Bf1ViEApHuYSPcwke5hIt3DRLqHaV66r/CdfwAAAADLRPAPAAAABILgHwAAAAgEwT8AAAAQCIJ/AAAAIBBbl5eXqaHAu7u79hGAEKgywD5CKCjnAWDzzarfmeoTBukeJtI9TKR7mEj3MJHuYZqX7nT7AQAAAAJB8A8AAAAEguAfAAAACATBPwAAABAIgn8AAAAgEAT/AAAAQCAI/l1XHalt1aRzZZ9jfZi02zJTW51e2HUAYA0/ReVDvFBOBIb6fbkuTm+Qj4ZyqvPbp6GMz2pq+1O1ZnVEnynMc4LgP6FO0mcN6dlnWC/j/7oq7apSPRBp/tWRsV0PADrwLx+3ZDCZmHmvJ8OWNEtbUjujpAgD9fvS7b+T9qL69qIvTVUvt/8sSeFtV+W9IynZl/C0CP41cwVbVicp1tNY+t9UsX7yQb68roqcd6XP3R0A2lVHPh+LtIZO4LF/JIMTkd63PjcKNh31+wMpSGVBfTv8V/3qBzWp7NgVWBkE/7pgKKlr0861uRuENXTxtzTOVeX+h7678EFa0pPuf3lV+lg6b9ym/2xzX9QMOH+bpClz7jYAVsJOXbqTiRzt2+cIB/X7g5pb39qL7urrirpMiOvWuNuPrYuT7kBz6lKnS69eamfDZN8pv072X4+ku/6dSt+uT7HdmZLlTbplw3xeta6THMv5zAv2zcYgasn5nI+B4H//yDQDd9/q0xPryNxdUEVQxVTuJanoO3r1v20hE9OFw7Y0pC3Xtun/uiPSeDbNuDpTb9f3pl0D1DI46altnH6KpiAqS/NkkGwTHYc+xMC60Hm9rFsDDusmMMGGon5/YLPqW5XHTFfclnyY99sfl+W9fLF16bW0D7z6VgfTzxoi+uLNblP7VjY3+6Z03V6W78k2avndlqo69rRbXxR0p7v+qXq7nu4IZgJ7dbHYGtpt9GdSUcO2P1bhvKHWxjFAV+o7c/ZNLgD0Z0jHIJPJQFqpz/mI1AdIyVkVjmFLff/qpP3bPg/I+qb7YNJSn73aUdkpZtJRJioTJq47VbWupbZ2XU/aB/G+OcfRfrcnVedYgxOZyEFb7emKjpNdv/qCzu8BCzbdbdlglpN0aRCCoPM79fvD8OrIiK0TnTyWroNn1JmpNJqxjX2/+Nj5dbtXV+fEBFq0b/x+82OAeH16n1i0b6ZMSe074/gPaF66c+cfa2189tkMKKq9cu4u7FdEZbLUQKTRT3WFf1CUon0eKUj9a3xXqCRHKq/Ed4iS5sHUILGxjH6o/14WvbuFcd/HkYzsGgAryN4JVlW4tH+UVR5frdlHgLWzU5GaHvj7r5OTTFfcaKDvXJm61KXq03MVZttuQ4mdouzZh1pqILHTRUi37MXGo+/q37h3wFSh6BzpaiR6q72i94ns9+v9dGv3PSm64xjMwGb1Dn943ze1b9xKsr0S5Q7BP9aYHeirwnPd7Wbaj84O7koGItmgfQHTbJcUHKrg+q2CBN18aF+PCyMA605d+P+l83ZTPjPjD3APKi8dtkSOPyddaO830LcnI30cG4xnFaWoAuopp7+/vllnu+TqAf0xc/Mvj7qQSOp39X4ztroxPYPYNA7Ry3aqi1Lpo4opzNiTppSTbZ7mQoDgH+srHuib9LFzFhO0zxr4m+OqI+/rvWhgmDlG1I8vzS90AAAInGltt/WtHeh77/E03h3+qfRNuOEnfbPP6cv/MdvaUHwxvYWX4gb87oXAndgbhvHncBf3MyWtj2oxcYq+EHj8CwCCf6yt9EBfT9zcZgYize6WY7r36AE5thDwm/yiQUuxghRfqv+O+15GtS0QmW5FAJ6cmYEjbxaR/DwP4LZsl5Zvqm60A31z6+VbiW62ZabjTbUI2Fb9TN07lL7T7Sfq3tOUvjcpR9QdyLIXG6nuS9pVX7q6+9GLObW7e/GTErVKzBzQu1OXLx19yfE9au14TOrqIyVnVTgYELRGZgywcUQDc+JBPnZ7d/CQOwjIG0RkxOuSYzjrMgOZsoOJ1sH6pTuWIax0zxk4GOdjfzDhhgs6v1O/Pyynvsyrl9MDc7MDgg1/YK59Ph0ka/dz1pmBvV66RuvU4uTvaJ0zMDj5vNN9s3V5/H7T/dLfYyovDki/Z17MMmNQ85LozzNL5pV5G288Coe1EWW0RWnlB/zTgiNavP3dwsssOtPmZVi7LrXdetKfH+EJMd2TgMAujznrxqoIOr9Tvz+wuH7N/43vFPxrXr1c7QzMvm7+zcvbeTFCejv1WifnnLCfIVm8zzgr+Df8fTNBvR875G2zPPr4s2zpf9QGCT0AwVuFAJDuYSLdw0S6h4l0D9NmpXs0r78M+cN9i8xLd/r8AwAAYIXYv4br/ZXceIDv/ccUhI07/zBI9zCR7mEi3cNEuodpfdM9ustvpu6OHbTl+it/mfsm5qU7wT8M0j1MpHuYSPcwke5hIt3DNC/d6fYDAAAABILgHwAAAAjE1uXlZapNYHd31z4CEAJVBthHCAXlPABsvln1O33+YZDuYSLdw0S6h4l0DxPpHqZ56U63HwAAACAQBP8AAABAIAj+AQAAgEAQ/AMAAACBIPgHAAAAAkHwDwAAAASC4F/G0nmzZaZEipfa2di+hkd3cWrToSadK7vuqVx1pPamo84QAJtkfFZTZcypDO1zbCrq97sZyqn+vT4tI4fYNEjq0ujYq5wOUfmwAjHIAwo8+Ncn4bY0pC3Xk4mZD3Xyuy1S317SSY/bGv7bFDmoSlV60vjnadNg+E9DfQoAG0Vd1L+vk7M3H/X7airJkUqL7tuCfY6nEHbwf9GXpgoz23/VJTkNd+rypVMVOe5zV+jRDaV/LFJ9/UU+nKinpAGApRpL55CL+iBQvwMzhR387x/JZNKV+o59nvJdRhvc5LOKxmefTWFde1WQ0p9t9agp/Qv7ojL8pJtts0312Sa6bFPvqXOc6I5Q1OwYHTNe4mNH+5fVhYicN2Q73t90SfKbAv0mzeh57awTNZvqxWvunL6fWrgDBTya8dl7cyd4oANAbDbq96VKusrp7rBOHZbtvuPVc5/6dn1sWv9OLaobF9XZU9HndLdZVvcd/zN6x03iA//7Z+v4zGf0t/F+Y72kY5j7o89/jtFPfV9oT4q5hQYexlj639TvflCTiv7ddypSOxBp/jXtc1/6o6X+TV8QJPudfLCFvM54XlPvsCXNUjbz9Orb0v/DbjMZiNpKyiZQL0j960QGuvXhIDrO0X60z0316g31Ueyxv+o7T/pzleV759q+n1p+qwuc43JO4Qlg6VTlvF0Xcye4aFchPNTv96HqyEORL7YOu1YX0boeTepWE7SWpXkySOq5gaqNG+f29Vw3rxtn19kRHVRv1/dkEB9HLYOTnjSe3XN8T873uu6IOq4fV+j36kslfn8Ve4j3PfTFiymHfsefUX0PtU1yAaDf65mKH9zfw8Qwy7qIsdSBU3JWhWXYMr9BtaNCvoA8ebr/bk+q6jO0hva5ogoW9bmqE5VJrOtJ+0AmcqKydszbL7tPRAXyan1rEu05mKgsmT6OEu0bb2P3OWird7XMueEf236mZDv/ecQ/dizzHo8s+PweqPDSPcrzcbk+Kz9uOup36vebydaR+XVrOl+l69mYXyfeLC+m68ab1Nnp4yZyYotF/O+aX09738ueW+n38WIW+1kyn9HdNzfOuJt56c6df5e+4irpAadt+cJglEcVDa5tScW5w154VfMG/hak8lplHae/5vi/rrOf13rgiFoN0k291RcPeP/vZXHaz1QpvO2qXHgkJf3EadIzXYsAPKjhp7I0KdfDRv2+BPNaTMYy+qH+O6lE9VyiIMWX9mGO29SN8+vs9EDipHvQs/uO8bHfy6vTk3jkfCQju0Z9wrktSlG8EnVtTtmvqChGRSijsX2sWxDUZ3/AbsEE/zHb1NLT3TxMNw08nmigr2lStBk/lWmdYD+6IIi7/sRdfrzCxvbTT46jF13o38hD9QV1+gHq72WbDwe6axGAh3NxqgIJb+AnwkL9/qB6P3X4q4LgGd17ii9UkDzTfevGaZ3t9qU3eV53rdFdiKKX72j297qxH6Oka1LUNch+32Qpq6gmFl3EmO+vuwPF2yz5QoDgX9MDNSgYnkw80NdkVHXSpxbdZy4J9pV4LMC/KiNc9aV7rvb7M32fQZx+eell1uCvh2fuPKrr+UH8WT56nxnAgzDTB3sV7raZ6jO62cCYmw1H/f5IilJUdXOeaJxFvqXVjeoCT0/hW036yt+svk8GMtvnWbO/190439Vb3OlPSx+n66/NDFXOuIAlIPjXBYO+K6wDRgqGJzC7q45hm8OmA38LUj9Ua4770tFNaKn9st2CYosz+F3d5K6AbTY8UIVItMKKWzwAPBS3Ek1VprYSZr7xDUb9/ohs955M/Wvrv1xLrBuvRqanwF4xncpRV5vZCsU99W9ei3/cxWn294piF/+zz5buueCw3Z1mzehTePtF2voCJNWCcD9hB//6B48LBu7EPg1z916k+royo2AuSUU3f513pR9nTnNB0JSGvsr39iu8/WBec2cAmN4ReJfuHrSAaap0+/PFffGcPz4W3bVYxBYe7ndQbrYvAODWqN8fXemjnYHHuUNtptedeYNsiXXjTtF07zG9AmK27p8rU68P5W+9j9OdOJ56PO97tQ5vcVG5Uzd/wyg9c4/92yMHbXmnxy7qC1b/QmBhnHR7QQf/yV9wdftVOcusqzAsTzzQ98Ocu29RxnMzp70gUGszA2dMf7lraYvT7/9ZQ/aGt7/DF1+lT7sGqGPbKcjic+Tzi+sb9U3Udx+jKcem55fe19yB9Ao+AMD9UL8/BV3/2qkr7e+8/a0m7Tl15NLqRhVYd736eevZSD6YKUG9i4IUv15XFx7+BaM+tv+97JSit50GXH/feJrQ6Fjb0njptEzpv09hpyeP30vHMHrqz2W2Um5NdBuoQ7+RtwoBIN3DRLqHiXQPE+keJtI9TPPSnT7/AAAAQCAI/gEAAIBAEPwDAAAAgSD4BwAAAAJB8A8AAAAEYuvy8jI1FHh3d9c+AhACVQbYRwgF5TwAbL5Z9Xtmqs9fv37J8+fP7TOEgnQPE+keJqb+CxPpHibSPUxM9QkAAACA4B8AAAAIBcE/AAAAEAiCfwAAACAQBP8AAABAIAj+AQAAgEAQ/AMANttVR2pbW2bqu9TypiNjuwk2nDkHatK5ss/x4MZnNZXPbvubD+VU5c3a2bJz5lg6b2bl+eg98z+r3e/TUOTi9FbfJ/r+p+roq4fgHwCw2a5G0pOqtH9PzLzXyfK1LgW7CTaZCu6eNdQ5gHAVpPK6KnI+kpFdk7joS9M86En3P+/S4Kov3XOR6ouiyP6RKje6Ut+xr60xgn8AwEYbj76LHNSksgGVNm7J3K0t2+AOISsU99S/TelfRM9jw3/V2XEykMGJCv9/epcG9sZB7dVm3SYg+AcAbLTRz57IyyJ3+UOjA/9SU6qda5kMW3YlnpbtRuN0vzv1gvHIyNvO7T4z7YoTda2Jt1nQJWe/Ivos+D5y7+4PpX8c3dkvvqiKHPdT3XTMhUF84yC320/cZShe5nXzmX735Xdruh2CfwDABrOV+4/PTgWtFt2HF5vNdNOYSPctl32rQQfK29KQtlzHXe/URVmzlA2Ge/WyjA7jLnrX0j5oStnvr39clvfyxdmmJ41n84LvklT03f1v/elxrkby3d7ZL7yqqUduy8BYRj/Uf7NuHJhxJGVpngzsZ5jI4ER9ztwLAB34q+9+HnU/fOpzkuAfALC5TOWuKvyXH5IKejIZSEsFDgz4BR7P+OyzCq1bMnDH2qgLNNPdpv53OmBWAfXRvn08q7/+QVu+JEF0QeqH5r6+jObc/Td3953jjP/rSi++s79TkdqB0zJg+/u3/ihFzz3DfxpqX3Uh83H6eumjKlsyXYvcwH81xgwQ/AMANtdOXbo64HcqaH0H8Eh3AzlvyN+5XQ4ALJvpfndQlKJ9Hiv9kQ3azQDbDC+wv0NXvvTd/bH0v/Wk+rpij1OQ4kunZcD0929JJbkIcc1qFVBliypvphcuIv1POvBXFxHD1RksTPAPAAjPTlEFAX7/XwAPwwbLD643985/6u6+vbO/V5yG7+ZC5LwrfXWMqL9/9mIlMpKR2nexpjSP7aPS6kz7SfAPAACAO1s8p310V/3pOXf38+7sm0HB+gIiuliZtgrcVUsGuuXxd9u0OJRXZKwRwT8AYHOZGTpyZhTZ0Cn8gKcQTaOZ199+T4q2q0vU3z66q+4yd9id7R5adHd/JH+bKT4rku7RX5Sibhn492/pns8rH6LBw/JjFHURSkxnIkrZqcuXjp5N6PMt/+jZwyD4BwBsrv130laVearJXc/SUdIV/4eN+IM9wJOzd8wb/8S5bCh/13up4Lrw9kO0zaEz0F5dnJf1bFydd14Q/oDMZ42642THFkSDi3vHTfVJ51+QlP5sS/W8IdtOoD8+ex8N7P0z+21yv/8TIfgHAGywgtS/xlPw2Wk+nzVE9NzvqUHAAO6uJEe6a4ueRcvkMzsFpj/QXk/JKSpgjvNi6fsTTH0Z3d1XoX/unf1oULCSaRXwmMkE7Mxh9vts1/dkMPOvAE8nGnAvGJ7C1kTPe+b49euXPH/+3D5DKEj3MJHuYdKVlFf0IwCke5hI9zDNS3fu/AMAAACBIPgHAAAAAkHwDwAAAASC4B8AAAAIBME/AAAAEIity8tLhoADQEB2d3ftIwDAplIxvn2UxlSfMEj3MJHuYSLdw0S6h4l0D9O8dKfbDwAAABAIgn8AAAAgEAT/AAAAQCAI/gEAAIBAEPwDAAAAgSD4BwAAAAJB8A8AAAAEguAfAAAACATBPwAAABAIgn8AAAAgEAT/AAAAQBBE/h9N3QSFF2QcJgAAAABJRU5ErkJggg==;" vertex="1" parent="1">
          <mxGeometry x="980" y="240" width="462.23" height="91" as="geometry" />
        </mxCell>
      </root>
    </mxGraphModel>
  </diagram>
</mxfile>
